<svg width="658" height="694" viewBox="0 0 658 694" fill="none" xmlns="http://www.w3.org/2000/svg">
<path d="M286.526 394.2C315.305 393.743 344.891 387.601 369.363 371.907C401.451 350.275 436.541 311.729 421.439 270.329C396.671 232.403 336.589 236.168 309.079 269.323C279.433 302.981 277.224 352.217 286.526 394.2ZM117.24 365.399C24.5605 225.316 101.591 82.5205 260.605 53.6978C284.87 48.2358 323.955 49.2976 320.425 83.5995C314.609 116.081 280.672 103.328 257.839 110.763C211.908 122.898 165.456 148.371 143.496 192.287C111.16 259.887 156.748 361 228.168 383.577C208.184 281.052 288.244 160.02 401.409 192.26C432.149 201.689 462.456 221.324 474.198 252.491C507.465 353.422 400.734 444.123 306.44 448.759C325.221 487.824 360.88 518.658 403.746 527.561C432.892 533.515 462.086 528.946 491.016 524.64C514.053 519.773 539.524 508.546 549.454 539.167C553.277 553.666 543.652 569.381 529.083 572.779C504.182 580.078 478.231 583.02 452.46 585.301C358.118 595.404 274.452 533.385 244.469 445.672C193.987 436.11 146.141 408.537 117.24 365.399Z" fill="#E8572A"/>
<path d="M229.205 399.137H240.307V423.549H229.205V399.137Z" fill="#E8572A"/>
</svg>
