<svg width="2931" height="911" viewBox="0 0 2931 911" fill="none" xmlns="http://www.w3.org/2000/svg">
<path d="M286.526 503.2C315.305 502.743 344.891 496.601 369.363 480.907C401.451 459.275 436.541 420.729 421.439 379.329C396.671 341.403 336.589 345.168 309.079 378.323C279.433 411.981 277.224 461.217 286.526 503.2ZM117.24 474.399C24.5605 334.316 101.591 191.52 260.605 162.698C284.87 157.236 323.955 158.298 320.425 192.6C314.609 225.081 280.672 212.328 257.839 219.763C211.908 231.898 165.456 257.371 143.496 301.287C111.16 368.887 156.748 470 228.168 492.577C208.184 390.052 288.244 269.02 401.409 301.26C432.149 310.689 462.456 330.324 474.198 361.491C507.465 462.422 400.734 553.123 306.44 557.759C325.221 596.824 360.88 627.658 403.746 636.561C432.892 642.515 462.086 637.946 491.016 633.64C514.053 628.773 539.524 617.546 549.454 648.167C553.277 662.666 543.652 678.381 529.083 681.779C504.182 689.078 478.231 692.02 452.46 694.301C358.118 704.404 274.452 642.385 244.469 554.672C193.987 545.11 146.141 517.537 117.24 474.399Z" fill="#E8572A"/>
<path d="M229.205 508.137H240.307V532.549H229.205V508.137Z" fill="#E8572A"/>
<path d="M712.6 694V341.2H775.6L779.8 401.4C791 380.4 806.867 363.833 827.4 351.7C847.933 339.1 871.5 332.8 898.1 332.8C926.1 332.8 950.133 338.4 970.2 349.6C990.267 360.8 1005.9 377.833 1017.1 400.7C1028.3 423.1 1033.9 451.333 1033.9 485.4V694H963.9V492.4C963.9 459.733 956.667 435 942.2 418.2C927.733 401.4 906.733 393 879.2 393C861 393 844.667 397.433 830.2 406.3C815.733 414.7 804.067 427.3 795.2 444.1C786.8 460.9 782.6 481.433 782.6 505.7V694H712.6ZM1284.44 702.4C1251.31 702.4 1221.44 694.7 1194.84 679.3C1168.71 663.9 1147.94 642.433 1132.54 614.9C1117.61 586.9 1110.14 554.7 1110.14 518.3C1110.14 480.967 1117.84 448.533 1133.24 421C1148.64 393 1169.64 371.3 1196.24 355.9C1222.84 340.5 1252.71 332.8 1285.84 332.8C1319.44 332.8 1349.31 340.5 1375.44 355.9C1401.57 371.3 1422.11 392.767 1437.04 420.3C1452.44 447.833 1460.14 480.267 1460.14 517.6C1460.14 554.933 1452.44 587.367 1437.04 614.9C1422.11 642.433 1401.34 663.9 1374.74 679.3C1348.14 694.7 1318.04 702.4 1284.44 702.4ZM1284.44 642.2C1303.57 642.2 1320.84 637.533 1336.24 628.2C1352.11 618.867 1364.71 605.1 1374.04 586.9C1383.84 568.233 1388.74 545.133 1388.74 517.6C1388.74 490.067 1384.07 467.2 1374.74 449C1365.41 430.333 1352.81 416.333 1336.94 407C1321.54 397.667 1304.51 393 1285.84 393C1267.17 393 1249.91 397.667 1234.04 407C1218.17 416.333 1205.34 430.333 1195.54 449C1186.21 467.2 1181.54 490.067 1181.54 517.6C1181.54 545.133 1186.21 568.233 1195.54 586.9C1205.34 605.1 1217.94 618.867 1233.34 628.2C1249.21 637.533 1266.24 642.2 1284.44 642.2ZM1703.48 702.4C1670.35 702.4 1640.48 694.7 1613.88 679.3C1587.75 663.9 1566.98 642.433 1551.58 614.9C1536.65 586.9 1529.18 554.7 1529.18 518.3C1529.18 480.967 1536.88 448.533 1552.28 421C1567.68 393 1588.68 371.3 1615.28 355.9C1641.88 340.5 1671.75 332.8 1704.88 332.8C1738.48 332.8 1768.35 340.5 1794.48 355.9C1820.62 371.3 1841.15 392.767 1856.08 420.3C1871.48 447.833 1879.18 480.267 1879.18 517.6C1879.18 554.933 1871.48 587.367 1856.08 614.9C1841.15 642.433 1820.38 663.9 1793.78 679.3C1767.18 694.7 1737.08 702.4 1703.48 702.4ZM1703.48 642.2C1722.62 642.2 1739.88 637.533 1755.28 628.2C1771.15 618.867 1783.75 605.1 1793.08 586.9C1802.88 568.233 1807.78 545.133 1807.78 517.6C1807.78 490.067 1803.12 467.2 1793.78 449C1784.45 430.333 1771.85 416.333 1755.98 407C1740.58 397.667 1723.55 393 1704.88 393C1686.22 393 1668.95 397.667 1653.08 407C1637.22 416.333 1624.38 430.333 1614.58 449C1605.25 467.2 1600.58 490.067 1600.58 517.6C1600.58 545.133 1605.25 568.233 1614.58 586.9C1624.38 605.1 1636.98 618.867 1652.38 628.2C1668.25 637.533 1685.28 642.2 1703.48 642.2ZM2118.33 702.4C2084.73 702.4 2055.09 694.467 2029.43 678.6C2003.76 662.267 1983.69 640.333 1969.23 612.8C1955.23 584.8 1948.23 553.067 1948.23 517.6C1948.23 481.667 1955.23 449.933 1969.23 422.4C1983.69 394.867 2003.76 373.167 2029.43 357.3C2055.56 340.967 2085.43 332.8 2119.03 332.8C2146.56 332.8 2170.83 338.4 2191.83 349.6C2212.83 360.333 2229.16 375.733 2240.83 395.8V190H2310.83V694H2247.83L2240.83 639.4C2233.83 650.133 2224.73 660.4 2213.53 670.2C2202.33 679.533 2188.79 687.233 2172.93 693.3C2157.06 699.367 2138.86 702.4 2118.33 702.4ZM2129.53 641.5C2151.46 641.5 2170.83 636.367 2187.63 626.1C2204.43 615.833 2217.26 601.367 2226.13 582.7C2235.46 564.033 2240.13 542.333 2240.13 517.6C2240.13 492.867 2235.46 471.4 2226.13 453.2C2217.26 434.533 2204.43 420.067 2187.63 409.8C2170.83 399.067 2151.46 393.7 2129.53 393.7C2108.53 393.7 2089.63 399.067 2072.83 409.8C2056.03 420.067 2042.96 434.533 2033.63 453.2C2024.29 471.4 2019.63 492.867 2019.63 517.6C2019.63 542.333 2024.29 564.033 2033.63 582.7C2042.96 601.367 2056.03 615.833 2072.83 626.1C2089.63 636.367 2108.53 641.5 2129.53 641.5ZM2406.55 694V190H2476.55V694H2406.55ZM2732.26 702.4C2698.66 702.4 2668.79 694.7 2642.66 679.3C2616.53 663.9 2595.99 642.433 2581.06 614.9C2566.59 587.367 2559.36 555.4 2559.36 519C2559.36 481.667 2566.59 449.233 2581.06 421.7C2595.99 393.7 2616.53 372 2642.66 356.6C2668.79 340.733 2699.13 332.8 2733.66 332.8C2768.19 332.8 2797.83 340.5 2822.56 355.9C2847.29 371.3 2866.43 391.833 2879.96 417.5C2893.49 442.7 2900.26 470.7 2900.26 501.5C2900.26 506.167 2900.03 511.3 2899.56 516.9C2899.56 522.033 2899.33 527.867 2898.86 534.4H2610.46V484.7H2830.26C2828.86 455.3 2819.06 432.433 2800.86 416.1C2782.66 399.3 2760.03 390.9 2732.96 390.9C2713.83 390.9 2696.33 395.333 2680.46 404.2C2664.59 412.6 2651.76 425.2 2641.96 442C2632.63 458.333 2627.96 479.1 2627.96 504.3V523.9C2627.96 550.033 2632.63 572.2 2641.96 590.4C2651.76 608.133 2664.59 621.667 2680.46 631C2696.33 639.867 2713.59 644.3 2732.26 644.3C2754.66 644.3 2773.09 639.4 2787.56 629.6C2802.03 619.8 2812.76 606.5 2819.76 589.7H2889.76C2883.69 611.167 2873.43 630.533 2858.96 647.8C2844.49 664.6 2826.53 677.9 2805.06 687.7C2784.06 697.5 2759.79 702.4 2732.26 702.4Z" fill="#111111"/>
</svg>
