<svg width="1024" height="1024" viewBox="0 0 1024 1024" fill="none" xmlns="http://www.w3.org/2000/svg">
<path d="M454.809 575.091C493.56 574.475 533.397 566.2 566.349 545.056C609.555 515.913 656.805 463.981 636.47 408.204C603.119 357.108 522.219 362.181 485.176 406.849C445.258 452.194 442.284 518.528 454.809 575.091ZM226.864 536.289C102.071 347.56 205.792 155.177 419.906 116.345C452.579 108.986 505.207 110.417 500.454 156.63C492.622 200.391 446.926 183.211 416.181 193.227C354.335 209.576 291.787 243.895 262.218 303.06C218.678 394.136 280.062 530.362 376.229 560.779C349.32 422.65 457.121 259.589 609.499 303.024C650.891 315.727 691.699 342.181 707.509 384.172C752.304 520.152 608.59 642.35 481.623 648.597C506.911 701.227 554.927 742.768 612.646 754.763C651.891 762.784 691.201 756.629 730.156 750.827C761.175 744.27 795.471 729.144 808.843 770.4C813.991 789.933 801.03 811.105 781.413 815.684C747.884 825.518 712.94 829.481 678.239 832.554C551.208 846.165 438.551 762.61 398.178 644.437C330.205 631.554 265.779 594.407 226.864 536.289Z" fill="#E8572A"/>
<path d="M377.625 581.743H392.575V614.632H377.625V581.743Z" fill="#E8572A"/>
</svg>
